<!-- Generated by IcoMoon.io -->
<svg version="1.1" xmlns="http://www.w3.org/2000/svg" width="512" height="512" viewBox="0 0 512 512">
<title></title>
<g id="icomoon-ignore">
</g>
<path d="M183.781 0c-121.679 0-183.781 70.081-183.781 200.928v0 274.517l119.195-119.314v-139.448c0-54.208 14.365-88.703 62.559-96.447v0c16.836-3.292 51.875-2.139 74.153-2.139v0 82.798c0 0.755 0.104 2.103 0.297 2.793v0c0.935 3.352 3.965 5.808 7.558 5.815v0c2.031 0.004 3.934-1.052 5.895-2.985v0l206.561-206.487-292.437-0.031zM392.805 155.873v139.445c0 54.207-14.368 88.707-62.558 96.447v0c-16.836 3.291-51.878 2.139-74.156 2.139v0-82.797c0-0.75-0.103-2.102-0.297-2.791v0c-0.932-3.356-3.961-5.811-7.556-5.815v0c-2.032-0.004-3.933 1.056-5.895 2.983v0l-206.562 206.483 292.437 0.033c121.677 0 183.782-70.084 183.782-200.926v0-274.514l-119.195 119.313z"></path>
</svg>
