
<svg version="1.1" xmlns="http://www.w3.org/2000/svg" width="1152" height="1024" viewBox="0 0 1152 1024">
<title></title>
<g id="icomoon-ignore">
</g>
<path fill="none" stroke-linejoin="round" stroke-linecap="round" stroke-miterlimit="4" stroke-width="96" stroke="#000" d="M1000.32 157.28c-24.518-24.528-53.626-43.985-85.664-57.26s-66.381-20.108-101.056-20.108c-34.682 0-69.024 6.833-101.062 20.108-32.032 13.275-61.146 32.732-85.66 57.26l-50.88 50.88-50.88-50.88c-49.521-49.521-116.687-77.342-186.72-77.342s-137.199 27.821-186.72 77.342c-49.521 49.521-77.342 116.686-77.342 186.72s27.821 137.199 77.342 186.72l424.32 424.32 424.322-424.32c24.525-24.516 43.981-53.625 57.261-85.663 13.274-32.038 20.102-66.378 20.102-101.057s-6.829-69.019-20.102-101.057c-13.28-32.038-32.736-61.146-57.261-85.663z"></path>
</svg>
