<svg aria-hidden="true" style="position: absolute; width: 0; height: 0; overflow: hidden;" version="1.1" xmlns="http://www.w3.org/2000/svg" xmlns:xlink="http://www.w3.org/1999/xlink">
<defs>
<symbol id="icon-active-heart" viewBox="0 0 32 32">
<path stroke-linejoin="round" stroke-linecap="round" stroke-miterlimit="4" stroke-width="1.7778" d="M27.787 6.147c-0.681-0.681-1.49-1.222-2.38-1.591s-1.844-0.559-2.807-0.559c-0.963 0-1.917 0.19-2.807 0.559s-1.698 0.909-2.38 1.591l-1.413 1.413-1.413-1.413c-1.376-1.376-3.241-2.148-5.187-2.148s-3.811 0.773-5.187 2.148c-1.376 1.376-2.148 3.241-2.148 5.187s0.773 3.811 2.148 5.187l11.787 11.787 11.787-11.787c0.681-0.681 1.222-1.49 1.591-2.38s0.559-1.844 0.559-2.807c0-0.963-0.19-1.917-0.559-2.807s-0.909-1.699-1.591-2.38z"></path>
</symbol>
<symbol id="icon-chevron-down" viewBox="0 0 29 32">
<path stroke-linejoin="round" stroke-linecap="round" stroke-miterlimit="4" stroke-width="2.9091" d="M7.273 10.909l7.273 7.273 7.273-7.273"></path>
</symbol>
<symbol id="icon-close" viewBox="0 0 32 32">
<path stroke-linejoin="round" stroke-linecap="round" stroke-miterlimit="4" stroke-width="2.4" d="M24 8l-16 16"></path>
<path stroke-linejoin="round" stroke-linecap="round" stroke-miterlimit="4" stroke-width="2.4" d="M8 8l16 16"></path>
</symbol>
<symbol id="icon-logo" viewBox="0 0 32 32">
<path d="M11.486 0c-7.605 0-11.486 4.38-11.486 12.558v0 17.157l7.45-7.457v-8.716c0-3.388 0.898-5.544 3.91-6.028v0c1.052-0.206 3.242-0.134 4.635-0.134v0 5.175c0 0.047 0.006 0.131 0.019 0.175v0c0.058 0.21 0.248 0.363 0.472 0.363v0c0.127 0 0.246-0.066 0.368-0.187v0l12.91-12.905-18.277-0.002zM24.55 9.742v8.715c0 3.388-0.898 5.544-3.91 6.028v0c-1.052 0.206-3.242 0.134-4.635 0.134v0-5.175c0-0.047-0.006-0.131-0.019-0.174v0c-0.058-0.21-0.248-0.363-0.472-0.363v0c-0.127-0-0.246 0.066-0.368 0.186v0l-12.91 12.905 18.277 0.002c7.605 0 11.486-4.38 11.486-12.558v0-17.157l-7.45 7.457z"></path>
</symbol>
<symbol id="icon-heart" viewBox="0 0 36 32">
<path stroke-linejoin="round" stroke-linecap="round" stroke-miterlimit="4" stroke-width="3" d="M31.26 4.915c-0.766-0.766-1.676-1.375-2.677-1.789s-2.074-0.628-3.158-0.628c-1.084 0-2.157 0.214-3.158 0.628s-1.911 1.023-2.677 1.789l-1.59 1.59-1.59-1.59c-1.548-1.548-3.646-2.417-5.835-2.417s-4.287 0.869-5.835 2.417c-1.548 1.548-2.417 3.646-2.417 5.835s0.869 4.287 2.417 5.835l13.26 13.26 13.26-13.26c0.766-0.766 1.374-1.676 1.789-2.677s0.628-2.074 0.628-3.158-0.213-2.157-0.628-3.158c-0.415-1.001-1.023-1.911-1.789-2.677z"></path>
</symbol>
<symbol id="icon-flattr1" viewBox="0 0 32 32">
<path d="M11.486 0c-7.605 0-11.486 4.38-11.486 12.558v0 17.157l7.45-7.457v-8.716c0-3.388 0.898-5.544 3.91-6.028v0c1.052-0.206 3.242-0.134 4.635-0.134v0 5.175c0 0.047 0.006 0.131 0.019 0.175v0c0.058 0.21 0.248 0.363 0.472 0.363v0c0.127 0 0.246-0.066 0.368-0.187v0l12.91-12.905-18.277-0.002zM24.55 9.742v8.715c0 3.388-0.898 5.544-3.91 6.028v0c-1.052 0.206-3.242 0.134-4.635 0.134v0-5.175c0-0.047-0.006-0.131-0.019-0.174v0c-0.058-0.21-0.248-0.363-0.472-0.363v0c-0.127-0-0.246 0.066-0.368 0.186v0l-12.91 12.905 18.277 0.002c7.605 0 11.486-4.38 11.486-12.558v0-17.157l-7.45 7.457z"></path>
</symbol>
</defs>
</svg>
